<svg width="563" height="500" viewBox="0 0 563 500" fill="none" xmlns="http://www.w3.org/2000/svg">
<path d="M392.871 336.816L424.121 305.566C429.004 300.684 437.5 304.102 437.5 311.133V453.125C437.5 479.004 416.504 500 390.625 500H46.875C20.9961 500 0 479.004 0 453.125V109.375C0 83.4961 20.9961 62.5 46.875 62.5H313.965C320.898 62.5 324.414 70.8984 319.531 75.8789L288.281 107.129C286.816 108.594 284.863 109.375 282.715 109.375H46.875V453.125H390.625V342.285C390.625 340.234 391.406 338.281 392.871 336.816ZM545.801 139.746L289.355 396.191L201.074 405.957C175.488 408.789 153.711 387.207 156.543 361.426L166.309 273.145L422.754 16.6992C445.117 -5.66406 481.25 -5.66406 503.516 16.6992L545.703 58.8867C568.066 81.25 568.066 117.48 545.801 139.746ZM449.316 169.922L392.578 113.184L211.133 294.727L204.004 358.496L267.773 351.367L449.316 169.922ZM512.598 92.0898L470.41 49.9023C466.406 45.8984 459.863 45.8984 455.957 49.9023L425.781 80.0781L482.52 136.816L512.695 106.641C516.602 102.539 516.602 96.0937 512.598 92.0898Z" fill="white"/>
</svg>
