<svg width="38" height="38" viewBox="0 0 38 38" fill="none" xmlns="http://www.w3.org/2000/svg">
<path d="M5.875 0H17.625C19.1831 0 20.6775 0.618972 21.7793 1.72075C22.881 2.82252 23.5 4.31685 23.5 5.875V13.7083H21.5417V5.875C21.5417 4.83624 21.129 3.84002 20.3945 3.1055C19.66 2.37098 18.6638 1.95833 17.625 1.95833H5.875C4.83624 1.95833 3.84002 2.37098 3.1055 3.1055C2.37098 3.84002 1.95833 4.83624 1.95833 5.875V31.3333C1.95833 32.3721 2.37098 33.3683 3.1055 34.1028C3.84002 34.8374 4.83624 35.25 5.875 35.25H17.625C18.6638 35.25 19.66 34.8374 20.3945 34.1028C21.129 33.3683 21.5417 32.3721 21.5417 31.3333V23.5H23.5V31.3333C23.5 32.8915 22.881 34.3858 21.7793 35.4876C20.6775 36.5894 19.1831 37.2083 17.625 37.2083H5.875C4.31685 37.2083 2.82252 36.5894 1.72075 35.4876C0.618972 34.3858 0 32.8915 0 31.3333V5.875C0 4.31685 0.618972 2.82252 1.72075 1.72075C2.82252 0.618972 4.31685 0 5.875 0ZM11.75 17.625H33.7813L27.4167 11.2604L28.7092 9.79167L37.5217 18.6042L28.7092 27.4167L27.4167 25.9479L33.7813 19.5833H11.75V17.625Z" fill="white"/>
</svg>
