<svg width="45" height="44" viewBox="0 0 45 44" fill="none" xmlns="http://www.w3.org/2000/svg">
<path d="M22.4304 4.16772C19.9999 4.16772 17.5932 4.62478 15.3477 5.51278C13.1021 6.40079 11.0618 7.70236 9.34319 9.34318C5.87224 12.657 3.92228 17.1514 3.92228 21.8378C3.9061 25.9181 5.38589 29.8751 8.10512 33.023L4.4035 36.557C4.14668 36.8055 3.97271 37.121 3.90354 37.4638C3.83437 37.8066 3.87309 38.1613 4.01483 38.4831C4.16855 38.801 4.41775 39.0682 4.73081 39.2506C5.04386 39.4331 5.40664 39.5227 5.7731 39.5079H22.4304C27.3391 39.5079 32.0467 37.6463 35.5176 34.3325C38.9886 31.0187 40.9385 26.5242 40.9385 21.8378C40.9385 17.1514 38.9886 12.657 35.5176 9.34318C32.0467 6.02939 27.3391 4.16772 22.4304 4.16772ZM22.4304 35.9739H10.2336L11.9548 34.3306C12.2995 33.9995 12.493 33.5517 12.493 33.0848C12.493 32.618 12.2995 32.1702 11.9548 31.8391C9.53133 29.5279 8.02215 26.486 7.68441 23.2316C7.34667 19.9772 8.20125 16.7117 10.1026 13.9915C12.0039 11.2712 14.8343 9.26441 18.1116 8.31308C21.3888 7.36175 24.9102 7.5247 28.0758 8.77417C31.2413 10.0236 33.8552 12.2823 35.472 15.1654C37.0889 18.0485 37.6087 21.3776 36.9429 24.5855C36.277 27.7935 34.4668 30.6818 31.8206 32.7584C29.1743 34.835 25.8558 35.9713 22.4304 35.9739Z" fill="white"/>
</svg>
