<svg width="79" height="79" viewBox="0 0 79 79" fill="none" xmlns="http://www.w3.org/2000/svg">
<path d="M47.005 6.58325C48.3867 6.58361 49.7333 7.01869 50.854 7.82687C51.9747 8.63505 52.8127 9.77535 53.2493 11.0863L55.0367 16.4583H65.8333C66.7063 16.4583 67.5436 16.8051 68.1609 17.4224C68.7782 18.0397 69.125 18.8769 69.125 19.7499C69.125 20.6229 68.7782 21.4602 68.1609 22.0775C67.5436 22.6948 66.7063 23.0416 65.8333 23.0416L65.8235 23.2753L62.9696 63.246C62.7915 65.7365 61.6765 68.0671 59.8492 69.7686C58.0219 71.4702 55.6178 72.4163 53.1209 72.4166H25.8791C23.3822 72.4163 20.9781 71.4702 19.1508 69.7686C17.3235 68.0671 16.2085 65.7365 16.0304 63.246L13.1765 23.272C13.1706 23.1953 13.1673 23.1185 13.1667 23.0416C12.2937 23.0416 11.4564 22.6948 10.8391 22.0775C10.2218 21.4602 9.875 20.6229 9.875 19.7499C9.875 18.8769 10.2218 18.0397 10.8391 17.4224C11.4564 16.8051 12.2937 16.4583 13.1667 16.4583H23.9633L25.7507 11.0863C26.1875 9.77481 27.026 8.63413 28.1474 7.82591C29.2687 7.01768 30.616 6.58292 31.9983 6.58325H47.005ZM59.2401 23.0416H19.7599L22.5973 62.7753C22.6564 63.6055 23.0278 64.3824 23.6367 64.9498C24.2456 65.5172 25.0468 65.8329 25.8791 65.8333H53.1209C53.9532 65.8329 54.7544 65.5172 55.3633 64.9498C55.9722 64.3824 56.3436 63.6055 56.4027 62.7753L59.2401 23.0416ZM32.9167 32.9166C33.7229 32.9167 34.5011 33.2127 35.1036 33.7484C35.706 34.2842 36.091 35.0224 36.1853 35.8231L36.2083 36.2083V52.6666C36.2074 53.5056 35.8861 54.3125 35.3102 54.9226C34.7343 55.5327 33.9471 55.8998 33.1096 55.9489C32.272 55.9981 31.4473 55.7256 30.804 55.1871C30.1606 54.6486 29.7471 53.8848 29.648 53.0517L29.625 52.6666V36.2083C29.625 35.3352 29.9718 34.498 30.5891 33.8807C31.2064 33.2634 32.0437 32.9166 32.9167 32.9166ZM46.0833 32.9166C46.9563 32.9166 47.7936 33.2634 48.4109 33.8807C49.0282 34.498 49.375 35.3352 49.375 36.2083V52.6666C49.375 53.5396 49.0282 54.3768 48.4109 54.9941C47.7936 55.6115 46.9563 55.9583 46.0833 55.9583C45.2103 55.9583 44.3731 55.6115 43.7558 54.9941C43.1385 54.3768 42.7917 53.5396 42.7917 52.6666V36.2083C42.7917 35.3352 43.1385 34.498 43.7558 33.8807C44.3731 33.2634 45.2103 32.9166 46.0833 32.9166ZM47.005 13.1666H31.995L30.8989 16.4583H48.1011L47.005 13.1666Z" fill="white"/>
</svg>
