<svg width="120" height="139" viewBox="0 0 120 139" fill="none" xmlns="http://www.w3.org/2000/svg">
<path d="M63.6666 84.2628V97.4995C57.9345 95.4729 51.7997 94.8512 45.7775 95.6868C39.7554 96.5224 34.0216 98.7908 29.0577 102.301C24.0938 105.812 20.0448 110.463 17.2507 115.862C14.4565 121.262 12.9988 127.254 13 133.333L0.333315 133.327C0.331349 125.593 2.09981 117.962 5.50321 111.017C8.9066 104.073 13.8546 97.9994 19.968 93.2627C26.0815 88.526 33.1981 85.2517 40.7726 83.6906C48.3471 82.1295 56.1785 82.3294 63.6666 84.2628ZM51 76.3335C30.005 76.3335 13 59.3285 13 38.3335C13 17.3385 30.005 0.333496 51 0.333496C71.995 0.333496 89 17.3385 89 38.3335C89 59.3285 71.995 76.3335 51 76.3335ZM51 63.6668C64.9966 63.6668 76.3333 52.3302 76.3333 38.3335C76.3333 24.3368 64.9966 13.0002 51 13.0002C37.0033 13.0002 25.6666 24.3368 25.6666 38.3335C25.6666 52.3302 37.0033 63.6668 51 63.6668ZM87.689 120.122L110.077 97.7338L119.039 106.689L87.689 138.039L65.2943 115.645L74.256 106.689L87.689 120.122Z" fill="white"/>
</svg>
