<svg width="43" height="43" viewBox="0 0 43 43" fill="none" xmlns="http://www.w3.org/2000/svg">
<path d="M37.8888 13.3343L25.2223 2.56419C24.0611 1.55689 22.5579 1 21.0001 1C19.4422 1 17.939 1.55689 16.7779 2.56419L4.1113 13.3343C3.44075 13.916 2.90565 14.6295 2.54164 15.4274C2.17762 16.2253 1.99305 17.0893 2.0002 17.9618V35.8574C2.0002 37.4865 2.66746 39.0489 3.85518 40.2009C5.0429 41.3528 6.6538 42 8.33349 42H33.6666C35.3463 42 36.9572 41.3528 38.145 40.2009C39.3327 39.0489 39.9999 37.4865 39.9999 35.8574V17.9413C40.0041 17.0722 39.8181 16.2122 39.4541 15.4181C39.0902 14.6239 38.5567 13.9137 37.8888 13.3343ZM25.2223 37.9049H16.7779V27.6672C16.7779 27.1241 17.0003 26.6033 17.3962 26.2193C17.7921 25.8353 18.3291 25.6196 18.889 25.6196H23.1112C23.6711 25.6196 24.208 25.8353 24.6039 26.2193C24.9998 26.6033 25.2223 27.1241 25.2223 27.6672V37.9049ZM35.7777 35.8574C35.7777 36.4004 35.5553 36.9212 35.1594 37.3052C34.7635 37.6892 34.2265 37.9049 33.6666 37.9049H29.4444V27.6672C29.4444 26.038 28.7772 24.4756 27.5895 23.3236C26.4018 22.1717 24.7909 21.5245 23.1112 21.5245H18.889C17.2093 21.5245 15.5984 22.1717 14.4107 23.3236C13.2229 24.4756 12.5557 26.038 12.5557 27.6672V37.9049H8.33349C7.77359 37.9049 7.23663 37.6892 6.84072 37.3052C6.44481 36.9212 6.22239 36.4004 6.22239 35.8574V17.9413C6.22277 17.6506 6.28698 17.3633 6.41074 17.0985C6.5345 16.8337 6.71498 16.5975 6.94017 16.4056L19.6067 5.65599C19.992 5.32773 20.4873 5.14669 21.0001 5.14669C21.5129 5.14669 22.0081 5.32773 22.3934 5.65599L35.06 16.4056C35.2852 16.5975 35.4656 16.8337 35.5894 17.0985C35.7132 17.3633 35.7774 17.6506 35.7777 17.9413V35.8574Z" fill="#F8F8F8"/>
</svg>
