<svg width="18" height="18" viewBox="0 0 18 18" fill="none" xmlns="http://www.w3.org/2000/svg">
<path d="M15.7739 4.84669C15.5449 4.31629 15.2146 3.83564 14.8015 3.43165C14.3882 3.02646 13.9008 2.70446 13.366 2.48317C12.8114 2.25278 12.2165 2.13486 11.616 2.13624C10.7734 2.13624 9.95142 2.36696 9.23706 2.80275C9.06616 2.907 8.90381 3.0215 8.75 3.14625C8.59619 3.0215 8.43384 2.907 8.26294 2.80275C7.54859 2.36696 6.72656 2.13624 5.88403 2.13624C5.27734 2.13624 4.68945 2.25245 4.13403 2.48317C3.59741 2.70533 3.11377 3.02492 2.69849 3.43165C2.28491 3.83518 1.95453 4.31595 1.72607 4.84669C1.48853 5.3987 1.36719 5.98488 1.36719 6.58815C1.36719 7.15724 1.4834 7.75026 1.71411 8.35353C1.90723 8.85768 2.18408 9.38063 2.53784 9.90871C3.09839 10.7444 3.86914 11.616 4.82617 12.4995C6.41211 13.9641 7.98267 14.9759 8.04932 15.0169L8.45435 15.2766C8.63379 15.3911 8.8645 15.3911 9.04395 15.2766L9.44898 15.0169C9.51563 14.9741 11.0845 13.9641 12.6721 12.4995C13.6292 11.616 14.3999 10.7444 14.9605 9.90871C15.3142 9.38063 15.5928 8.85768 15.7842 8.35353C16.0149 7.75026 16.1311 7.15724 16.1311 6.58815C16.1328 5.98488 16.0115 5.3987 15.7739 4.84669ZM8.75 13.9248C8.75 13.9248 2.66602 10.0266 2.66602 6.58815C2.66602 4.84669 4.10669 3.43507 5.88403 3.43507C7.1333 3.43507 8.2168 4.13234 8.75 5.15089C9.28321 4.13234 10.3667 3.43507 11.616 3.43507C13.3933 3.43507 14.834 4.84669 14.834 6.58815C14.834 10.0266 8.75 13.9248 8.75 13.9248Z" fill="#FF0000"/>
<path d="M6.42537 4.87948C6.1469 4.87948 5.8244 4.89526 5.58081 5.04572C5.37339 5.17383 5.39877 5.26853 5.38777 5.46934C5.37211 5.75508 5.11744 5.97524 5.07943 6.26028C5.06747 6.35004 5.12156 6.36492 5.10625 6.271C5.06206 6.00001 4.8314 5.7606 4.68262 5.54173C4.52312 5.30708 4.57879 5.11722 4.76574 4.93311C4.94985 4.75179 5.13878 4.57716 5.30465 4.37811C5.39639 4.26802 5.28875 4.44423 5.26711 4.47195C5.18826 4.57298 5.10381 4.61203 5.28856 4.61405C5.82471 4.61991 6.36114 4.60619 6.89726 4.61405C7.25137 4.61924 7.58934 4.69146 7.8799 4.90361C8.40316 5.28568 8.60894 6.03772 9.29421 6.19191C9.73913 6.29202 10.2596 6.00877 10.482 5.62618C10.5705 5.47383 10.5669 5.29838 10.6227 5.13553C10.6526 5.04839 10.6257 4.95487 10.6536 4.87144C10.6807 4.78987 10.9669 4.5576 10.667 4.65695C10.3218 4.77127 9.97729 4.93496 9.6508 5.09398C9.53301 5.15135 9.37658 5.23766 9.60254 5.1476C10.6207 4.74175 11.8059 4.33105 12.8923 4.69851C13.2125 4.80681 13.5775 4.84587 13.8428 5.07655C13.9237 5.14689 13.9404 5.29482 13.9688 5.39158C14.0262 5.58734 14.1036 5.77595 14.1565 5.97339C14.2254 6.2308 14.2195 6.4936 14.2195 6.75763C14.2195 6.88939 14.2345 7.03218 14.2155 7.16248C14.1759 7.43285 13.9505 7.75577 13.7918 7.97353C13.3733 8.54799 12.9381 9.16586 12.4258 9.65864C12.1984 9.87736 11.9425 10.0651 11.6965 10.2619C11.5779 10.3568 11.4776 10.4723 11.3614 10.5702C11.1964 10.7091 11.0055 10.8136 10.8359 10.9469C10.7045 11.0502 10.5501 11.1432 10.431 11.2606C10.321 11.3691 10.2287 11.4818 10.1093 11.5824C9.96109 11.7072 9.77131 11.8492 9.67493 12.0221C9.58732 12.1793 9.47284 12.3072 9.36928 12.4511C9.34432 12.4857 9.30074 12.4996 9.27276 12.5342C9.22373 12.5947 9.21948 12.6673 9.13334 12.6723C8.97486 12.6813 8.81396 12.6437 8.66279 12.5999C8.44225 12.5359 8.36034 12.3674 8.24722 12.1803C8.06275 11.8751 7.8156 11.6267 7.58363 11.3585C7.40442 11.1513 7.16757 11.0692 6.95624 10.9107C6.84562 10.8278 6.79914 10.7105 6.72298 10.5997C6.63262 10.4683 6.49214 10.3795 6.3932 10.2525C6.27724 10.1037 6.23484 9.91822 6.11168 9.77795C5.99405 9.64398 6.00961 9.43449 5.91327 9.29534C5.76532 9.08163 5.63017 8.86892 5.45748 8.67063C5.25866 8.44236 5.044 8.12423 4.97755 7.82607C4.86806 7.33478 4.74939 6.92507 4.37429 6.57397C4.3154 6.51885 4.12197 6.29968 4.0311 6.41042C3.79233 6.70143 3.81929 6.99922 3.81929 7.35687C3.81929 7.55088 3.82417 7.73516 3.86755 7.92527C3.90852 8.10479 3.98724 8.24916 4.04853 8.4186C4.19714 8.82947 4.55934 9.13125 4.89578 9.39454C4.95342 9.43966 4.98782 9.49597 5.03788 9.54603C5.06526 9.57341 5.06419 9.51439 5.06335 9.50179C5.05336 9.35193 4.99931 9.20368 4.93733 9.06878C4.60333 8.34183 3.82587 7.86758 3.62089 7.08071C3.5663 6.87118 3.51821 6.71659 3.63161 6.51499C3.70661 6.38165 3.83263 6.28592 3.92922 6.16912C4.00565 6.07669 4.05422 5.9714 4.12226 5.87419C4.18367 5.78646 4.37676 5.80481 4.46277 5.8018C5.39299 5.76922 6.33553 5.78211 7.26457 5.82325C8.68323 5.88607 10.0567 6.27905 11.478 6.27905C11.6755 6.27905 11.873 6.27905 12.0705 6.27905C12.2179 6.27905 12.2329 6.3114 12.1188 6.45064C11.6901 6.97396 11.0142 7.19024 10.3975 7.39843C9.59272 7.6701 8.79677 7.89248 7.95497 8.00571C7.78745 8.02824 7.63307 8.06568 7.47102 8.11027C7.41615 8.12537 7.35598 8.14405 7.29809 8.1344C7.21035 8.11978 7.19644 7.9696 7.17073 7.90248C7.08964 7.69073 7.04587 7.44466 7.11041 7.22147C7.18804 6.95297 7.59924 7.00862 7.80885 7.0472C8.37344 7.15111 8.83705 7.52979 9.09178 8.03654C9.27036 8.39181 9.47773 8.99255 9.2808 9.38248C9.0964 9.7476 8.5205 9.51462 8.2633 9.38114C8.02455 9.25723 7.62495 9.05727 7.53939 8.77386C7.4433 8.45556 7.81743 8.17747 8.0649 8.07006C8.36505 7.93977 8.70887 7.91528 9.03145 7.9065C9.43941 7.8954 9.85029 7.92193 10.2487 8.01375C10.5504 8.08329 11.1657 8.29504 10.8144 8.70549C10.2899 9.3184 9.1694 9.25546 8.47377 9.08621C8.11825 8.99971 7.53778 8.77444 7.64798 8.30332C7.78297 7.72618 8.27422 7.48545 8.80892 7.381C9.12108 7.32002 9.88926 7.13852 10.0798 7.52578C10.3202 8.01442 9.79007 8.5886 9.4229 8.82078C8.73769 9.25407 7.78753 9.14739 7.07153 8.85563C6.83419 8.75892 6.30819 8.50331 6.29132 8.18266C6.27516 7.87573 6.51155 7.8293 6.77392 7.81535C7.07551 7.7993 7.39207 7.81438 7.67747 7.92259C8.22797 8.13131 8.3574 8.66209 8.37993 9.20284C8.38743 9.38272 8.41806 9.91106 8.21906 10.0648C8.15518 10.1142 7.97421 10.0916 7.90135 10.0916C7.68327 10.0916 7.44676 10.0652 7.23106 10.1037C7.00026 10.1449 7.37777 10.7064 7.42946 10.7834C7.5537 10.9683 7.71028 11.1213 7.84236 11.2995C7.99398 11.5041 8.11103 11.7693 8.32095 11.9229C8.39619 11.9779 8.51081 12.0101 8.57164 12.0811C8.59359 12.1067 8.59018 12.0156 8.59174 11.9819C8.59972 11.8105 8.59711 11.6386 8.59711 11.4671" stroke="#FF0000" stroke-width="3" stroke-linecap="round"/>
</svg>
