<svg width="500" height="500" viewBox="0 0 500 500" fill="none" xmlns="http://www.w3.org/2000/svg">
<path d="M250 458.333C273.012 458.333 291.667 439.679 291.667 416.667C291.667 393.655 273.012 375 250 375C226.988 375 208.333 393.655 208.333 416.667C208.333 439.679 226.988 458.333 250 458.333Z" fill="white"/>
<path d="M250 125C273.012 125 291.667 106.345 291.667 83.3334C291.667 60.3216 273.012 41.6667 250 41.6667C226.988 41.6667 208.333 60.3216 208.333 83.3334C208.333 106.345 226.988 125 250 125Z" fill="white"/>
<path d="M132.146 409.521C155.158 409.521 173.813 390.866 173.813 367.854C173.813 344.842 155.158 326.188 132.146 326.188C109.134 326.188 90.4792 344.842 90.4792 367.854C90.4792 390.866 109.134 409.521 132.146 409.521Z" fill="white"/>
<path d="M367.854 173.813C390.866 173.813 409.521 155.158 409.521 132.146C409.521 109.134 390.866 90.4792 367.854 90.4792C344.842 90.4792 326.188 109.134 326.188 132.146C326.188 155.158 344.842 173.813 367.854 173.813Z" fill="white"/>
<path d="M83.3333 291.688C106.357 291.688 125.021 273.023 125.021 250C125.021 226.977 106.357 208.312 83.3333 208.312C60.3099 208.312 41.6458 226.977 41.6458 250C41.6458 273.023 60.3099 291.688 83.3333 291.688Z" fill="white"/>
<path d="M416.667 291.667C439.679 291.667 458.333 273.012 458.333 250C458.333 226.988 439.679 208.333 416.667 208.333C393.655 208.333 375 226.988 375 250C375 273.012 393.655 291.667 416.667 291.667Z" fill="white"/>
<path d="M132.146 173.833C155.158 173.833 173.813 155.179 173.813 132.167C173.813 109.155 155.158 90.5 132.146 90.5C109.134 90.5 90.4792 109.155 90.4792 132.167C90.4792 155.179 109.134 173.833 132.146 173.833Z" fill="white"/>
<path d="M367.854 409.542C390.866 409.542 409.521 390.887 409.521 367.875C409.521 344.863 390.866 326.208 367.854 326.208C344.842 326.208 326.188 344.863 326.188 367.875C326.188 390.887 344.842 409.542 367.854 409.542Z" fill="white"/>
</svg>
