<svg width="155" height="155" viewBox="0 0 155 155" fill="none" xmlns="http://www.w3.org/2000/svg">
<g filter="url(#filter0_d_365_110)">
<rect x="1" y="3" width="145" height="145" rx="20" fill="#494649" fill-opacity="0.7" shape-rendering="crispEdges"/>
<rect x="1" y="3" width="145" height="145" rx="20" stroke="#524D51" shape-rendering="crispEdges"/>
</g>
<g filter="url(#filter1_dd_365_110)">
<path fill-rule="evenodd" clip-rule="evenodd" d="M58.5015 27.0949C63.8835 24.4951 70 23.025 76.5 23.025C84.7686 23.0116 92.8258 25.4465 99.497 29.9749C99.8411 30.2122 100.233 30.3839 100.649 30.4803C101.065 30.5767 101.497 30.5958 101.922 30.5364C102.346 30.4771 102.753 30.3405 103.12 30.1346C103.487 29.9287 103.806 29.6575 104.059 29.3366C104.313 29.0157 104.495 28.6516 104.596 28.2651C104.696 27.8786 104.714 27.4775 104.646 27.0849C104.579 26.6922 104.428 26.3158 104.203 25.9773C103.978 25.6388 103.683 25.345 103.335 25.1127C95.8115 20.0125 86.5295 17 76.5 17C69.1883 16.991 61.9828 18.622 55.4985 21.7538C54.7575 22.1347 54.2063 22.7688 53.9624 23.521C53.7184 24.2732 53.8011 25.0839 54.1927 25.7805C54.5843 26.477 55.2539 27.0042 56.0588 27.2497C56.8636 27.4953 57.7402 27.4397 58.5015 27.0949ZM108.936 32.1716C108.525 32.2775 108.14 32.4574 107.804 32.7012C107.467 32.9446 107.186 33.2471 106.975 33.5915C106.765 33.9358 106.63 34.3152 106.577 34.708C106.525 35.1008 106.557 35.4992 106.671 35.8806C106.785 36.262 106.979 36.6189 107.242 36.9308C110.327 40.5823 112.622 44.7516 114.002 49.2097C114.258 49.9566 114.818 50.5814 115.563 50.9517C116.309 51.322 117.18 51.4085 117.993 51.1929C118.806 50.9773 119.496 50.4765 119.917 49.7969C120.338 49.1173 120.457 48.3123 120.248 47.5528C118.641 42.3494 115.965 37.4825 112.367 33.2193C112.104 32.9075 111.778 32.6468 111.406 32.452C111.034 32.2572 110.625 32.1322 110.201 32.0841C109.778 32.0359 109.348 32.0657 108.936 32.1716ZM44.7362 34.9761C44.5086 34.6414 44.212 34.3515 43.8635 34.1231C43.1601 33.6613 42.2877 33.4774 41.4381 33.6119C40.5884 33.7463 39.8312 34.1881 39.333 34.8401C34.0875 41.7176 31 50.1165 31 59.1751V95.3251C31 96.1241 31.3424 96.8903 31.9519 97.4553C32.5614 98.0202 33.388 98.3376 34.25 98.3376C35.112 98.3376 35.9386 98.0202 36.5481 97.4553C37.1576 96.8903 37.5 96.1241 37.5 95.3251V59.1751C37.4865 51.7056 39.9821 44.4176 44.6402 38.3225C44.8868 37.9995 45.0622 37.6347 45.1566 37.2488C45.251 36.863 45.2624 36.4636 45.1903 36.0737C45.1182 35.6837 44.9639 35.3107 44.7362 34.9761ZM121.048 57.0449C120.439 56.4799 119.612 56.1626 118.75 56.1626V56.1656C117.888 56.1656 117.061 56.483 116.452 57.0479C115.842 57.6129 115.5 58.3791 115.5 59.1781V95.3251C115.513 103.764 112.328 111.939 106.501 118.422C105.949 119.036 105.683 119.829 105.762 120.625C105.841 121.421 106.257 122.155 106.92 122.667C107.583 123.178 108.438 123.424 109.296 123.351C110.155 123.278 110.948 122.892 111.499 122.278C118.298 114.711 122.015 105.172 122 95.3251V59.1751C122 58.3761 121.658 57.6099 121.048 57.0449ZM41.5828 115.457C41.1677 115.55 40.7765 115.718 40.4315 115.952C40.0865 116.185 39.7944 116.479 39.5721 116.817C39.3497 117.155 39.2014 117.53 39.1356 117.921C39.0698 118.312 39.0878 118.712 39.1886 119.096C39.2894 119.481 39.471 119.844 39.723 120.163C45.2104 127.139 52.8706 132.39 61.6735 135.211C66.4444 136.731 71.455 137.505 76.5 137.5C77.3619 137.5 78.1886 137.183 78.7981 136.618C79.4076 136.053 79.75 135.287 79.75 134.488C79.75 133.689 79.4076 132.922 78.7981 132.357C78.1886 131.792 77.3619 131.475 76.5 131.475C72.1761 131.48 67.8814 130.817 63.7925 129.514C56.2458 127.095 49.679 122.592 44.975 116.611C44.7236 116.291 44.4065 116.02 44.042 115.814C43.6776 115.608 43.2727 115.47 42.8508 115.409C42.4288 115.347 41.9979 115.364 41.5828 115.457ZM102.196 129.129C102.386 128.35 102.235 127.533 101.775 126.857V126.854C101.315 126.179 100.585 125.7 99.7443 125.524C98.9038 125.348 98.0223 125.488 97.2935 125.914C93.6647 128.04 89.6801 129.592 85.5025 130.508C85.087 130.599 84.6949 130.765 84.3486 130.996C84.0023 131.228 83.7086 131.52 83.4842 131.857C83.2598 132.194 83.1092 132.568 83.0409 132.959C82.9726 133.349 82.9879 133.749 83.0861 134.134C83.1843 134.519 83.3633 134.882 83.613 135.203C83.8627 135.524 84.1781 135.796 84.5413 136.004C84.9045 136.212 85.3084 136.352 85.7298 136.415C86.1512 136.479 86.582 136.464 86.9975 136.373C91.874 135.305 96.5252 133.492 100.761 131.011C101.49 130.585 102.006 129.908 102.196 129.129ZM76.5 32.0625C60.2955 32.0625 44 43.4046 44 59.883L43.9967 59.886V97.6839C43.9967 101.437 44.5947 105.312 45.8655 108.725C47.1232 112.099 49.148 115.298 52.2225 117.316C52.5705 117.545 52.9639 117.709 53.38 117.797C53.7961 117.885 54.2269 117.896 54.6477 117.83C55.0686 117.764 55.4713 117.622 55.8328 117.411C56.1943 117.201 56.5075 116.927 56.7546 116.604C57.0017 116.281 57.1779 115.917 57.273 115.531C57.3681 115.145 57.3803 114.746 57.3089 114.356C57.2376 113.966 57.084 113.593 56.857 113.257C56.63 112.922 56.334 112.632 55.986 112.403C54.426 111.379 53.0252 109.469 52.0112 106.755C51.0167 104.082 50.5 100.889 50.5 97.6869V59.883C50.5 47.4956 63.0027 38.0875 76.5 38.0875C89.9972 38.0875 102.5 47.4986 102.5 59.883V90.9419C102.5 92.9362 102.064 94.4726 101.414 95.4064C100.878 96.1806 100.17 96.6325 98.8957 96.6325C97.5372 96.6325 96.5167 96.1083 95.7497 95.1895C94.934 94.2075 94.375 92.7132 94.375 90.9419V62.9045C94.3836 58.4474 92.5156 54.163 89.1685 50.963C85.8242 47.7818 81.2677 45.9803 76.5 45.9803C74.1363 45.984 71.7974 46.4269 69.6215 47.2827C67.4455 48.1385 65.4768 49.3899 63.8315 50.963C60.4843 54.163 58.6163 58.4474 58.625 62.9045V97.8948C58.625 108.119 64.3352 118.085 77.0102 122.266C77.8201 122.526 78.7079 122.479 79.4806 122.135C80.2532 121.791 80.848 121.178 81.1356 120.43C81.4231 119.682 81.3801 118.858 81.0159 118.139C80.6517 117.42 79.9958 116.863 79.191 116.59C69.467 113.382 65.125 105.941 65.125 97.8978V62.9045C65.1162 60.0187 66.3217 57.2434 68.4855 55.1684C70.6272 53.132 73.51 52.0053 76.5 52.0053C77.996 52.0086 79.476 52.2899 80.8526 52.8327C82.2293 53.3755 83.4744 54.1687 84.5145 55.1654C86.6782 57.2404 87.8838 60.0157 87.875 62.9015V90.9389C87.875 93.8038 88.7622 96.6626 90.6115 98.8738C92.5095 101.148 95.3727 102.654 98.8925 102.654C102.497 102.654 105.217 101.073 106.887 98.6569C108.447 96.4006 109 93.5839 109 90.9389V59.883C109 43.4046 92.7045 32.0625 76.5 32.0625ZM78.7981 60.0574C78.1886 59.4925 77.362 59.1751 76.5 59.1751C75.638 59.1751 74.8114 59.4925 74.2019 60.0574C73.5924 60.6224 73.25 61.3886 73.25 62.1876V91.671C73.25 99.3558 75.265 105.679 79.854 110.065C84.4657 114.47 91.1412 116.413 99.25 116.413C100.112 116.413 100.939 116.095 101.548 115.53C102.158 114.965 102.5 114.199 102.5 113.4C102.5 112.601 102.158 111.835 101.548 111.27C100.939 110.705 100.112 110.388 99.25 110.388C92.191 110.388 87.4915 108.707 84.521 105.869C81.531 103.016 79.75 98.4732 79.75 91.671V62.1876C79.75 61.3886 79.4076 60.6224 78.7981 60.0574Z" fill="#C1C1C1"/>
<path d="M76.5 23.025L76.5 23.525L76.5008 23.525L76.5 23.025ZM58.5015 27.0949L58.7078 27.5505L58.719 27.5452L58.5015 27.0949ZM99.497 29.9749L99.7808 29.5632L99.7778 29.5612L99.497 29.9749ZM100.649 30.4803L100.762 29.9932L100.762 29.9932L100.649 30.4803ZM103.12 30.1346L103.365 30.5706L103.365 30.5706L103.12 30.1346ZM104.059 29.3366L104.452 29.6464L104.452 29.6464L104.059 29.3366ZM104.596 28.2651L104.112 28.139L104.112 28.139L104.596 28.2651ZM104.646 27.0849L105.139 27.0004L105.139 27.0004L104.646 27.0849ZM103.335 25.1127L103.055 25.5266L103.058 25.5286L103.335 25.1127ZM76.5 17L76.4994 17.5H76.5V17ZM55.4985 21.7538L55.281 21.3034L55.2699 21.3091L55.4985 21.7538ZM53.9624 23.521L54.438 23.6753L54.438 23.6753L53.9624 23.521ZM54.1927 25.7805L53.7569 26.0255L53.7569 26.0255L54.1927 25.7805ZM56.0588 27.2497L55.9129 27.728L55.9129 27.728L56.0588 27.2497ZM107.804 32.7012L108.097 33.1064L108.097 33.106L107.804 32.7012ZM108.936 32.1716L109.061 32.6558L109.061 32.6558L108.936 32.1716ZM106.975 33.5915L107.402 33.8522L107.402 33.8522L106.975 33.5915ZM106.577 34.708L107.073 34.7739L107.073 34.7739L106.577 34.708ZM106.671 35.8806L106.192 36.0238L106.192 36.0238L106.671 35.8806ZM107.242 36.9308L106.859 37.2529L106.86 37.2534L107.242 36.9308ZM114.002 49.2097L113.524 49.3575L113.526 49.3648L113.529 49.372L114.002 49.2097ZM115.563 50.9517L115.341 51.3995L115.341 51.3995L115.563 50.9517ZM117.993 51.1929L117.865 50.7096L117.865 50.7096L117.993 51.1929ZM119.917 49.7969L120.342 50.0602L120.342 50.0602L119.917 49.7969ZM120.248 47.5528L120.73 47.4203L120.728 47.4127L120.726 47.4052L120.248 47.5528ZM112.367 33.2193L111.985 33.5416L111.985 33.5418L112.367 33.2193ZM110.201 32.0841L110.145 32.5809L110.145 32.5809L110.201 32.0841ZM43.8635 34.1231L43.5891 34.5411L43.5894 34.5413L43.8635 34.1231ZM44.7362 34.9761L45.1496 34.6948L45.1496 34.6948L44.7362 34.9761ZM41.4381 33.6119L41.3599 33.118L41.3599 33.118L41.4381 33.6119ZM39.333 34.8401L38.9357 34.5365L38.9354 34.5369L39.333 34.8401ZM31.9519 97.4553L31.612 97.8219L31.612 97.8219L31.9519 97.4553ZM36.5481 97.4553L36.888 97.8219L36.888 97.8219L36.5481 97.4553ZM37.5 59.1751L38 59.1751L38 59.1742L37.5 59.1751ZM44.6402 38.3225L45.0375 38.6261L45.0377 38.6259L44.6402 38.3225ZM45.1903 36.0737L44.6986 36.1646L44.6986 36.1646L45.1903 36.0737ZM118.75 56.1626V55.6626H118.25V56.1626H118.75ZM121.048 57.0449L121.388 56.6782L121.388 56.6782L121.048 57.0449ZM118.75 56.1656V56.6656H119.25V56.1656H118.75ZM116.452 57.0479L116.792 57.4146L116.792 57.4146L116.452 57.0479ZM115.5 95.3251H115L115 95.3259L115.5 95.3251ZM106.501 118.422L106.129 118.088L106.129 118.088L106.501 118.422ZM105.762 120.625L105.264 120.674L105.264 120.674L105.762 120.625ZM111.499 122.278L111.127 121.944L111.127 121.944L111.499 122.278ZM122 95.3251L121.5 95.3251L121.5 95.3258L122 95.3251ZM40.4315 115.952L40.7116 116.366L40.7117 116.366L40.4315 115.952ZM39.5721 116.817L39.9898 117.092L39.9898 117.092L39.5721 116.817ZM39.1356 117.921L38.6425 117.838L38.6425 117.838L39.1356 117.921ZM39.1886 119.096L38.7049 119.223L38.7049 119.223L39.1886 119.096ZM39.723 120.163L40.116 119.854L40.1156 119.854L39.723 120.163ZM61.6735 135.211L61.5209 135.687L61.5217 135.687L61.6735 135.211ZM76.5 137.5L76.5 137L76.4995 137L76.5 137.5ZM78.7981 136.618L78.4582 136.251L78.4582 136.251L78.7981 136.618ZM76.5 131.475L76.5 130.975L76.4994 130.975L76.5 131.475ZM63.7925 129.514L63.6399 129.99L63.6407 129.99L63.7925 129.514ZM44.975 116.611L44.5818 116.92L44.582 116.921L44.975 116.611ZM42.8508 115.409L42.9226 114.914L42.9226 114.914L42.8508 115.409ZM101.775 126.857H101.275V127.011L101.362 127.138L101.775 126.857ZM102.196 129.129L101.71 129.01L101.71 129.01L102.196 129.129ZM101.775 126.854H102.275V126.7L102.188 126.572L101.775 126.854ZM99.7443 125.524L99.8469 125.035L99.8469 125.035L99.7443 125.524ZM97.2935 125.914L97.0411 125.482L97.0407 125.483L97.2935 125.914ZM85.5025 130.508L85.6094 130.997L85.6095 130.996L85.5025 130.508ZM83.0409 132.959L83.5334 133.045L83.5334 133.045L83.0409 132.959ZM83.0861 134.134L82.6016 134.257L82.6016 134.257L83.0861 134.134ZM83.613 135.203L83.2183 135.51L83.2183 135.51L83.613 135.203ZM86.9975 136.373L87.1044 136.862L87.1045 136.862L86.9975 136.373ZM100.761 131.011L100.509 130.58L100.508 130.58L100.761 131.011ZM44 59.883L44.3397 60.2499L44.5 60.1015V59.883H44ZM43.9967 59.886L43.6571 59.5191L43.4967 59.6675V59.886H43.9967ZM45.8655 108.725L45.3969 108.899L45.397 108.899L45.8655 108.725ZM52.2225 117.316L52.4974 116.899L52.4969 116.898L52.2225 117.316ZM53.38 117.797L53.2763 118.286L53.2764 118.286L53.38 117.797ZM54.6477 117.83L54.7254 118.324L54.7254 118.324L54.6477 117.83ZM55.8328 117.411L56.0843 117.843L56.0843 117.843L55.8328 117.411ZM56.7546 116.604L56.3577 116.3L56.3577 116.3L56.7546 116.604ZM57.273 115.531L57.7584 115.651L57.7584 115.651L57.273 115.531ZM56.857 113.257L57.271 112.977L57.271 112.977L56.857 113.257ZM55.986 112.403L56.2609 111.985L56.2604 111.985L55.986 112.403ZM52.0112 106.755L51.5426 106.929L51.5429 106.929L52.0112 106.755ZM101.414 95.4064L101.004 95.1208L101.003 95.1217L101.414 95.4064ZM95.7497 95.1895L95.3651 95.509L95.3659 95.51L95.7497 95.1895ZM94.375 62.9045L93.875 62.9036V62.9045H94.375ZM89.1685 50.963L89.514 50.6016L89.5131 50.6007L89.1685 50.963ZM76.5 45.9803L76.5 45.4803L76.4992 45.4803L76.5 45.9803ZM63.8315 50.963L64.177 51.3244L64.177 51.3244L63.8315 50.963ZM58.625 62.9045L59.125 62.9045L59.125 62.9036L58.625 62.9045ZM77.0102 122.266L76.8536 122.741L76.8574 122.742L77.0102 122.266ZM79.4806 122.135L79.6839 122.592L79.6839 122.592L79.4806 122.135ZM81.0159 118.139L80.5699 118.365L80.5699 118.365L81.0159 118.139ZM79.191 116.59L79.3516 116.117L79.3476 116.116L79.191 116.59ZM65.125 62.9045L65.625 62.9045L65.625 62.903L65.125 62.9045ZM68.4855 55.1684L68.1409 54.8061L68.1394 54.8076L68.4855 55.1684ZM76.5 52.0053L76.5011 51.5053H76.5V52.0053ZM80.8526 52.8327L81.0361 52.3675L81.0361 52.3675L80.8526 52.8327ZM84.5145 55.1654L84.8605 54.8045L84.8604 54.8044L84.5145 55.1654ZM87.875 62.9015L87.375 62.9V62.9015H87.875ZM90.6115 98.8738L90.9954 98.5535L90.995 98.5531L90.6115 98.8738ZM106.887 98.6569L107.299 98.9413L107.299 98.9413L106.887 98.6569ZM79.854 110.065L79.5085 110.427L79.5087 110.427L79.854 110.065ZM101.548 115.53L101.888 115.897L101.888 115.897L101.548 115.53ZM101.548 111.27L101.888 110.903L101.888 110.903L101.548 111.27ZM84.521 105.869L84.8664 105.507L84.8662 105.507L84.521 105.869ZM76.5 22.525C69.9241 22.525 63.7333 24.0124 58.284 26.6447L58.719 27.5452C64.0336 24.9779 70.0759 23.525 76.5 23.525V22.525ZM99.7778 29.5612C93.0213 24.9749 84.8655 22.5114 76.4992 22.525L76.5008 23.525C84.6718 23.5118 92.6303 25.9181 99.2162 30.3886L99.7778 29.5612ZM100.762 29.9932C100.405 29.9107 100.072 29.764 99.7808 29.5632L99.2132 30.3865C99.6102 30.6603 100.06 30.8572 100.536 30.9674L100.762 29.9932ZM101.852 30.0412C101.489 30.0921 101.118 30.0757 100.762 29.9932L100.536 30.9674C101.012 31.0777 101.506 31.0994 101.991 31.0316L101.852 30.0412ZM102.875 29.6986C102.563 29.8735 102.216 29.9904 101.852 30.0412L101.991 31.0316C102.476 30.9638 102.942 30.8076 103.365 30.5706L102.875 29.6986ZM103.667 29.0268C103.455 29.2948 103.187 29.5237 102.875 29.6986L103.365 30.5706C103.787 30.3336 104.157 30.0201 104.452 29.6464L103.667 29.0268ZM104.112 28.139C104.029 28.457 103.878 28.7589 103.667 29.0268L104.452 29.6464C104.747 29.2726 104.961 28.8462 105.079 28.3912L104.112 28.139ZM104.153 27.1693C104.209 27.4918 104.195 27.8211 104.112 28.139L105.079 28.3912C105.198 27.9362 105.218 27.4632 105.139 27.0004L104.153 27.1693ZM103.787 26.2541C103.974 26.5357 104.098 26.8468 104.153 27.1694L105.139 27.0004C105.06 26.5376 104.883 26.0959 104.62 25.7005L103.787 26.2541ZM103.058 25.5286C103.352 25.7253 103.6 25.9724 103.787 26.2541L104.62 25.7005C104.357 25.3053 104.014 24.9647 103.613 24.6968L103.058 25.5286ZM76.5 17.5C86.4288 17.5 95.6132 20.4822 103.055 25.5266L103.616 24.6988C96.0098 19.5429 86.6302 16.5 76.5 16.5V17.5ZM55.7159 22.204C62.1311 19.1056 69.262 17.4911 76.4994 17.5L76.5006 16.5C69.1146 16.4909 61.8344 18.1384 55.281 21.3035L55.7159 22.204ZM54.438 23.6753C54.6388 23.056 55.0965 22.5226 55.7271 22.1984L55.2699 21.3091C54.4184 21.7468 53.7738 22.4817 53.4867 23.3668L54.438 23.6753ZM54.6285 25.5354C54.3045 24.9591 54.2376 24.293 54.438 23.6753L53.4867 23.3668C53.1992 24.2534 53.2977 25.2087 53.7569 26.0255L54.6285 25.5354ZM56.2047 26.7715C55.5156 26.5613 54.9535 26.1134 54.6285 25.5354L53.7569 26.0255C54.2151 26.8406 54.9922 27.4471 55.9129 27.728L56.2047 26.7715ZM58.2952 26.6395C57.6454 26.9337 56.8942 26.9818 56.2047 26.7715L55.9129 27.728C56.8331 28.0087 57.8349 27.9457 58.7078 27.5504L58.2952 26.6395ZM108.097 33.106C108.382 32.8999 108.709 32.7464 109.061 32.6558L108.812 31.6874C108.341 31.8085 107.899 32.0149 107.511 32.2964L108.097 33.106ZM107.402 33.8522C107.577 33.5661 107.812 33.3121 108.097 33.1064L107.511 32.296C107.122 32.5771 106.795 32.9282 106.549 33.3307L107.402 33.8522ZM107.073 34.7739C107.116 34.4514 107.227 34.1383 107.402 33.8522L106.549 33.3307C106.303 33.7334 106.143 34.179 106.082 34.6421L107.073 34.7739ZM107.15 35.7375C107.056 35.4235 107.03 35.0963 107.073 34.7739L106.082 34.6421C106.02 35.1053 106.058 35.575 106.192 36.0238L107.15 35.7375ZM107.624 36.6086C107.404 36.3478 107.244 36.0515 107.15 35.7375L106.192 36.0238C106.326 36.4725 106.553 36.89 106.859 37.2529L107.624 36.6086ZM114.479 49.0619C113.079 44.5381 110.751 40.3096 107.624 36.6081L106.86 37.2534C109.902 40.855 112.165 44.9651 113.524 49.3575L114.479 49.0619ZM115.786 50.5039C115.151 50.1887 114.686 49.6626 114.475 49.0474L113.529 49.372C113.83 50.2505 114.485 50.9742 115.341 51.3995L115.786 50.5039ZM117.865 50.7096C117.168 50.8945 116.421 50.8196 115.786 50.5039L115.341 51.3995C116.196 51.8244 117.192 51.9225 118.121 51.6762L117.865 50.7096ZM119.492 49.5335C119.142 50.0986 118.561 50.5248 117.865 50.7096L118.121 51.6762C119.05 51.4297 119.85 50.8544 120.342 50.0602L119.492 49.5335ZM119.766 47.6854C119.937 48.3084 119.841 48.9702 119.492 49.5335L120.342 50.0602C120.835 49.2644 120.977 48.3162 120.73 47.4203L119.766 47.6854ZM111.985 33.5418C115.54 37.755 118.183 42.5627 119.77 47.7004L120.726 47.4052C119.098 42.1361 116.389 37.2101 112.749 32.8969L111.985 33.5418ZM111.174 32.8948C111.49 33.0604 111.765 33.2808 111.985 33.5416L112.749 32.8971C112.443 32.5343 112.065 32.2331 111.638 32.0092L111.174 32.8948ZM110.145 32.5809C110.508 32.6221 110.858 32.7292 111.174 32.8948L111.638 32.0092C111.211 31.7852 110.742 31.6422 110.258 31.5872L110.145 32.5809ZM109.061 32.6558C109.413 32.5652 109.781 32.5396 110.145 32.5809L110.258 31.5872C109.774 31.5323 109.282 31.5662 108.812 31.6874L109.061 32.6558ZM43.5894 34.5413C43.8846 34.7347 44.1332 34.9786 44.3228 35.2573L45.1496 34.6948C44.8839 34.3042 44.5394 33.9683 44.1376 33.7049L43.5894 34.5413ZM41.5162 34.1057C42.246 33.9903 42.9923 34.1492 43.5891 34.5411L44.1379 33.7051C43.328 33.1734 42.3294 32.9646 41.3599 33.118L41.5162 34.1057ZM39.7303 35.1437C40.1464 34.5991 40.7867 34.2212 41.5162 34.1057L41.3599 33.118C40.3902 33.2715 39.516 33.7772 38.9357 34.5365L39.7303 35.1437ZM31.5 59.1751C31.5 50.2329 34.5472 41.9393 39.7306 35.1433L38.9354 34.5369C33.6278 41.4959 30.5 50 30.5 59.1751H31.5ZM31.5 95.3251V59.1751H30.5V95.3251H31.5ZM32.2918 97.0886C31.7798 96.6139 31.5 95.9787 31.5 95.3251H30.5C30.5 96.2694 30.9051 97.1667 31.612 97.8219L32.2918 97.0886ZM34.25 97.8376C33.5089 97.8376 32.8051 97.5644 32.2918 97.0886L31.612 97.8219C32.3177 98.476 33.2672 98.8376 34.25 98.8376V97.8376ZM36.2082 97.0886C35.6949 97.5644 34.9911 97.8376 34.25 97.8376V98.8376C35.2328 98.8376 36.1823 98.476 36.888 97.8219L36.2082 97.0886ZM37 95.3251C37 95.9787 36.7202 96.6139 36.2082 97.0886L36.888 97.8219C37.5949 97.1667 38 96.2694 38 95.3251H37ZM37 59.1751V95.3251H38V59.1751H37ZM44.243 38.0189C39.5199 44.1988 36.9863 51.5933 37 59.176L38 59.1742C37.9867 51.8179 40.4442 44.6363 45.0375 38.6261L44.243 38.0189ZM44.6709 37.13C44.5933 37.4474 44.4485 37.7497 44.2428 38.0192L45.0377 38.6259C45.325 38.2494 45.5311 37.822 45.6423 37.3676L44.6709 37.13ZM44.6986 36.1646C44.7579 36.4849 44.7485 36.8127 44.6709 37.13L45.6423 37.3676C45.7534 36.9132 45.767 36.4424 45.6819 35.9827L44.6986 36.1646ZM44.3228 35.2573C44.5123 35.5359 44.6394 35.8443 44.6986 36.1646L45.6819 35.9827C45.5969 35.5232 45.4154 35.0856 45.1496 34.6948L44.3228 35.2573ZM118.75 56.6626C119.491 56.6626 120.195 56.9358 120.708 57.4116L121.388 56.6782C120.682 56.0241 119.733 55.6626 118.75 55.6626V56.6626ZM119.25 56.1656V56.1626H118.25V56.1656H119.25ZM116.792 57.4146C117.305 56.9388 118.009 56.6656 118.75 56.6656V55.6656C117.767 55.6656 116.818 56.0271 116.112 56.6812L116.792 57.4146ZM116 59.1781C116 58.5245 116.28 57.8892 116.792 57.4146L116.112 56.6812C115.405 57.3365 115 58.2337 115 59.1781H116ZM116 95.3251V59.1781H115V95.3251H116ZM106.873 118.756C112.78 112.184 116.014 103.891 116 95.3243L115 95.3259C115.013 103.636 111.877 111.693 106.129 118.088L106.873 118.756ZM106.26 120.576C106.195 119.924 106.411 119.27 106.873 118.756L106.129 118.088C105.487 118.803 105.171 119.733 105.264 120.674L106.26 120.576ZM107.225 122.271C106.666 121.839 106.324 121.227 106.26 120.576L105.264 120.674C105.357 121.614 105.848 122.471 106.615 123.062L107.225 122.271ZM109.254 122.853C108.516 122.916 107.786 122.703 107.225 122.271L106.615 123.062C107.38 123.653 108.359 123.933 109.339 123.85L109.254 122.853ZM111.127 121.944C110.665 122.459 109.992 122.79 109.254 122.853L109.339 123.85C110.318 123.766 111.231 123.326 111.871 122.612L111.127 121.944ZM121.5 95.3258C121.514 105.045 117.847 114.466 111.127 121.944L111.871 122.612C118.75 114.957 122.515 105.3 122.5 95.3244L121.5 95.3258ZM121.5 59.1751V95.3251H122.5V59.1751H121.5ZM120.708 57.4116C121.22 57.8862 121.5 58.5215 121.5 59.1751H122.5C122.5 58.2307 122.095 57.3335 121.388 56.6782L120.708 57.4116ZM40.7117 116.366C41.0038 116.168 41.3369 116.025 41.6923 115.945L41.4733 114.969C40.9985 115.076 40.5492 115.268 40.1513 115.538L40.7117 116.366ZM39.9898 117.092C40.1748 116.811 40.4195 116.563 40.7116 116.366L40.1514 115.537C39.7534 115.807 39.4141 116.147 39.1544 116.542L39.9898 117.092ZM39.6287 118.004C39.6827 117.683 39.8048 117.373 39.9898 117.092L39.1544 116.542C38.8946 116.937 38.7201 117.377 38.6425 117.838L39.6287 118.004ZM39.6723 118.97C39.5894 118.653 39.5747 118.325 39.6287 118.004L38.6425 117.838C38.565 118.299 38.5863 118.77 38.7049 119.223L39.6723 118.97ZM40.1156 119.854C39.9052 119.587 39.7552 119.286 39.6723 118.97L38.7049 119.223C38.8236 119.676 39.0368 120.1 39.3304 120.473L40.1156 119.854ZM61.826 134.734C53.114 131.943 45.539 126.748 40.116 119.854L39.33 120.472C44.8818 127.53 52.6272 132.837 61.5209 135.687L61.826 134.734ZM76.4995 137C71.5058 137.005 66.5466 136.239 61.8253 134.734L61.5217 135.687C66.3422 137.223 71.4042 138.005 76.5004 138L76.4995 137ZM78.4582 136.251C77.9449 136.727 77.2411 137 76.5 137V138C77.4828 138 78.4323 137.639 79.138 136.984L78.4582 136.251ZM79.25 134.488C79.25 135.141 78.9702 135.776 78.4582 136.251L79.138 136.984C79.8449 136.329 80.25 135.432 80.25 134.488H79.25ZM78.4582 132.724C78.9702 133.199 79.25 133.834 79.25 134.488H80.25C80.25 133.543 79.8449 132.646 79.138 131.991L78.4582 132.724ZM76.5 131.975C77.2411 131.975 77.9449 132.248 78.4582 132.724L79.138 131.991C78.4323 131.337 77.4828 130.975 76.5 130.975V131.975ZM63.6407 129.99C67.7793 131.309 72.1253 131.98 76.5005 131.975L76.4994 130.975C72.2268 130.98 67.9836 130.325 63.9443 129.038L63.6407 129.99ZM44.582 116.921C49.3503 122.983 56.0023 127.542 63.6399 129.99L63.9451 129.038C56.4892 126.648 50.0077 122.202 45.368 116.302L44.582 116.921ZM43.7957 116.249C44.1052 116.424 44.3718 116.653 44.5818 116.92L45.3682 116.303C45.0753 115.93 44.7079 115.616 44.2884 115.379L43.7957 116.249ZM42.7789 115.903C43.1407 115.956 43.4861 116.074 43.7957 116.249L44.2884 115.379C43.869 115.141 43.4048 114.984 42.9226 114.914L42.7789 115.903ZM41.6923 115.945C42.0478 115.865 42.4172 115.851 42.7789 115.903L42.9226 114.914C42.4404 114.844 41.9481 114.862 41.4733 114.969L41.6923 115.945ZM101.362 127.138C101.744 127.699 101.866 128.372 101.71 129.01L102.682 129.247C102.906 128.328 102.726 127.366 102.189 126.576L101.362 127.138ZM101.275 126.854V126.857H102.275V126.854H101.275ZM99.6416 126.013C100.363 126.164 100.979 126.573 101.362 127.135L102.188 126.572C101.652 125.784 100.807 125.236 99.8469 125.035L99.6416 126.013ZM97.5458 126.346C98.1656 125.983 98.9203 125.862 99.6416 126.013L99.8469 125.035C98.8874 124.833 97.8791 124.993 97.0411 125.482L97.5458 126.346ZM85.6095 130.996C89.8375 130.07 93.8714 128.498 97.5462 126.345L97.0407 125.483C93.458 127.582 89.5227 129.115 85.3954 130.02L85.6095 130.996ZM84.6264 131.412C84.9197 131.216 85.2536 131.074 85.6094 130.997L85.3955 130.02C84.9203 130.124 84.4701 130.314 84.0708 130.581L84.6264 131.412ZM83.9003 132.134C84.0871 131.854 84.3332 131.608 84.6264 131.412L84.0708 130.581C83.6714 130.848 83.3301 131.187 83.0682 131.58L83.9003 132.134ZM83.5334 133.045C83.5895 132.724 83.7136 132.414 83.9003 132.134L83.0682 131.58C82.8061 131.973 82.6289 132.412 82.5484 132.872L83.5334 133.045ZM83.5706 134.01C83.4899 133.693 83.4773 133.366 83.5334 133.045L82.5484 132.872C82.4678 133.333 82.486 133.804 82.6016 134.257L83.5706 134.01ZM84.0076 134.896C83.7992 134.628 83.6514 134.327 83.5706 134.01L82.6016 134.257C82.7172 134.711 82.9274 135.136 83.2183 135.51L84.0076 134.896ZM84.7898 135.571C84.4814 135.394 84.2162 135.164 84.0076 134.896L83.2183 135.51C83.5092 135.884 83.8748 136.199 84.2929 136.438L84.7898 135.571ZM85.8041 135.921C85.4429 135.867 85.0982 135.747 84.7898 135.571L84.2929 136.438C84.7109 136.678 85.1739 136.837 85.6555 136.91L85.8041 135.921ZM86.8905 135.885C86.5347 135.963 86.1654 135.975 85.8041 135.921L85.6555 136.91C86.1371 136.982 86.6293 136.966 87.1044 136.862L86.8905 135.885ZM100.508 130.58C96.3185 133.034 91.7166 134.827 86.8904 135.885L87.1045 136.862C92.0314 135.782 96.7318 133.951 101.014 131.443L100.508 130.58ZM101.71 129.01C101.554 129.65 101.127 130.218 100.509 130.58L101.014 131.443C101.852 130.952 102.458 130.165 102.682 129.247L101.71 129.01ZM44.5 59.883C44.5 43.7778 60.4634 32.5625 76.5 32.5625V31.5625C60.1276 31.5625 43.5 43.0314 43.5 59.883H44.5ZM44.3364 60.2529L44.3397 60.2499L43.6603 59.5161L43.6571 59.5191L44.3364 60.2529ZM44.4967 97.6839V59.886H43.4967V97.6839H44.4967ZM46.3341 108.55C45.0873 105.202 44.4967 101.388 44.4967 97.6839H43.4967C43.4967 101.487 44.1021 105.421 45.3969 108.899L46.3341 108.55ZM52.4969 116.898C49.541 114.958 47.5693 111.864 46.334 108.55L45.397 108.899C46.6772 112.334 48.7549 115.638 51.9481 117.734L52.4969 116.898ZM53.4836 117.308C53.1272 117.232 52.7922 117.093 52.4974 116.899L51.9476 117.734C52.3489 117.998 52.8005 118.185 53.2763 118.286L53.4836 117.308ZM54.5701 117.336C54.2094 117.393 53.84 117.383 53.4836 117.308L53.2764 118.286C53.7522 118.387 54.2444 118.4 54.7254 118.324L54.5701 117.336ZM55.5812 116.979C55.2744 117.158 54.9308 117.28 54.5701 117.336L54.7254 118.324C55.2064 118.248 55.6681 118.086 56.0843 117.843L55.5812 116.979ZM56.3577 116.3C56.1514 116.569 55.888 116.801 55.5812 116.979L56.0843 117.843C56.5005 117.601 56.8636 117.284 57.1515 116.908L56.3577 116.3ZM56.7875 115.411C56.7093 115.729 56.5639 116.031 56.3577 116.3L57.1515 116.908C57.4396 116.532 57.6465 116.105 57.7584 115.651L56.7875 115.411ZM56.8171 114.446C56.8757 114.766 56.8657 115.094 56.7875 115.411L57.7584 115.651C57.8704 115.196 57.8849 114.726 57.8008 114.266L56.8171 114.446ZM56.443 113.538C56.632 113.817 56.7585 114.125 56.8171 114.446L57.8008 114.266C57.7167 113.806 57.536 113.368 57.271 112.977L56.443 113.538ZM55.7111 112.821C56.0059 113.015 56.254 113.259 56.443 113.538L57.271 112.977C57.006 112.586 56.6622 112.249 56.2609 111.985L55.7111 112.821ZM51.5429 106.929C52.5793 109.704 54.033 111.719 55.7116 112.821L56.2604 111.985C54.819 111.039 53.4712 109.234 52.4796 106.58L51.5429 106.929ZM50 97.6869C50 100.939 50.5241 104.192 51.5426 106.929L52.4798 106.58C51.5093 103.972 51 100.84 51 97.6869H50ZM50 59.883V97.6869H51V59.883H50ZM76.5 37.5875C62.8299 37.5875 50 47.1264 50 59.883H51C51 47.8648 63.1756 38.5875 76.5 38.5875V37.5875ZM103 59.883C103 47.1294 90.1701 37.5875 76.5 37.5875V38.5875C89.8243 38.5875 102 47.8678 102 59.883H103ZM103 90.9419V59.883H102V90.9419H103ZM101.825 95.6921C102.553 94.6452 103 92.9959 103 90.9419H102C102 92.8765 101.575 94.2999 101.004 95.1208L101.825 95.6921ZM98.8957 97.1325C99.5923 97.1325 100.171 97.0087 100.662 96.7534C101.155 96.4973 101.523 96.1274 101.825 95.6911L101.003 95.1217C100.769 95.4597 100.515 95.7028 100.201 95.8662C99.8853 96.0304 99.4731 96.1325 98.8957 96.1325V97.1325ZM95.3659 95.51C96.2262 96.5406 97.3864 97.1325 98.8957 97.1325V96.1325C97.688 96.1325 96.8072 95.6761 96.1336 94.8691L95.3659 95.51ZM93.875 90.9419C93.875 92.8141 94.4652 94.4257 95.3651 95.509L96.1343 94.8701C95.4027 93.9892 94.875 92.6124 94.875 90.9419H93.875ZM93.875 62.9045V90.9419H94.875V62.9045H93.875ZM88.823 51.3244C92.0755 54.434 93.8833 58.5891 93.875 62.9036L94.875 62.9055C94.8839 58.3056 92.9558 53.892 89.514 50.6016L88.823 51.3244ZM76.5 46.4803C81.1431 46.4803 85.5752 48.2349 88.8239 51.3253L89.5131 50.6007C86.0733 47.3286 81.3924 45.4803 76.5 45.4803V46.4803ZM69.8045 47.748C71.9217 46.9153 74.1987 46.4839 76.5008 46.4803L76.4992 45.4803C74.0738 45.4841 71.6731 45.9385 69.4385 46.8174L69.8045 47.748ZM64.177 51.3244C65.7741 49.7974 67.6873 48.5807 69.8045 47.748L69.4385 46.8174C67.2038 47.6963 65.1794 48.9824 63.4859 50.6016L64.177 51.3244ZM59.125 62.9036C59.1166 58.5891 60.9244 54.434 64.177 51.3244L63.486 50.6016C60.0442 53.892 58.1161 58.3056 58.125 62.9055L59.125 62.9036ZM59.125 97.8948V62.9045H58.125V97.8948H59.125ZM77.1669 121.791C64.7078 117.681 59.125 107.915 59.125 97.8948H58.125C58.125 108.323 63.9627 118.488 76.8536 122.741L77.1669 121.791ZM79.2773 121.678C78.6177 121.972 77.8566 122.012 77.1631 121.79L76.8574 122.742C77.7835 123.039 78.7982 122.986 79.6839 122.592L79.2773 121.678ZM80.6688 120.251C80.4317 120.868 79.9362 121.385 79.2773 121.678L79.6839 122.592C80.5702 122.197 81.2644 121.489 81.6023 120.609L80.6688 120.251ZM80.5699 118.365C80.8706 118.959 80.9054 119.635 80.6688 120.251L81.6023 120.609C81.9409 119.728 81.8896 118.758 81.462 117.913L80.5699 118.365ZM79.0303 117.064C79.7188 117.297 80.2682 117.769 80.5699 118.365L81.462 117.913C81.0352 117.071 80.2729 116.429 79.3516 116.117L79.0303 117.064ZM64.625 97.8978C64.625 106.147 69.0958 113.786 79.0343 117.065L79.3476 116.116C69.8381 112.978 65.625 105.736 65.625 97.8978H64.625ZM64.625 62.9045V97.8978H65.625V62.9045H64.625ZM68.1394 54.8076C65.8812 56.9731 64.6157 59.8776 64.625 62.9061L65.625 62.903C65.6166 60.1598 66.7622 57.5138 68.8316 55.5293L68.1394 54.8076ZM76.5 51.5053C73.3854 51.5053 70.3783 52.6788 68.1409 54.8061L68.83 55.5308C70.8762 53.5852 73.6346 52.5053 76.5 52.5053V51.5053ZM81.0361 52.3675C79.6007 51.8016 78.0588 51.5087 76.5011 51.5053L76.4989 52.5053C77.9332 52.5084 79.3513 52.7782 80.6692 53.2978L81.0361 52.3675ZM84.8604 54.8044C83.7722 53.7615 82.4714 52.9335 81.0361 52.3675L80.6692 53.2978C81.9871 53.8175 83.1767 54.5759 84.1685 55.5264L84.8604 54.8044ZM88.375 62.9031C88.3842 59.8746 87.1187 56.9701 84.8605 54.8045L84.1684 55.5263C86.2378 57.5108 87.3834 60.1568 87.375 62.9L88.375 62.9031ZM88.375 90.9389V62.9015H87.375V90.9389H88.375ZM90.995 98.5531C89.2317 96.4446 88.375 93.7044 88.375 90.9389H87.375C87.375 93.9032 88.2927 96.8806 90.2279 99.1946L90.995 98.5531ZM98.8925 102.154C95.5249 102.154 92.8009 100.717 90.9954 98.5535L90.2276 99.1942C92.2181 101.579 95.2206 103.154 98.8925 103.154V102.154ZM106.476 98.3726C104.9 100.652 102.335 102.154 98.8925 102.154V103.154C102.659 103.154 105.534 101.494 107.299 98.9413L106.476 98.3726ZM108.5 90.9389C108.5 93.5238 107.959 96.2284 106.476 98.3726L107.299 98.9413C108.936 96.5727 109.5 93.6439 109.5 90.9389H108.5ZM108.5 59.883V90.9389H109.5V59.883H108.5ZM76.5 32.5625C92.5366 32.5625 108.5 43.7778 108.5 59.883H109.5C109.5 43.0314 92.8724 31.5625 76.5 31.5625V32.5625ZM76.5 59.6751C77.2411 59.6751 77.9449 59.9483 78.4582 60.4241L79.138 59.6907C78.4323 59.0366 77.4828 58.6751 76.5 58.6751V59.6751ZM74.5418 60.4241C75.0551 59.9483 75.7589 59.6751 76.5 59.6751V58.6751C75.5172 58.6751 74.5677 59.0366 73.862 59.6907L74.5418 60.4241ZM73.75 62.1876C73.75 61.534 74.0298 60.8988 74.5418 60.4241L73.862 59.6907C73.1551 60.346 72.75 61.2433 72.75 62.1876H73.75ZM73.75 91.671V62.1876H72.75V91.671H73.75ZM80.1995 109.704C75.7422 105.444 73.75 99.2729 73.75 91.671H72.75C72.75 99.4388 74.7878 105.915 79.5085 110.427L80.1995 109.704ZM99.25 115.913C91.2124 115.913 84.6835 113.986 80.1993 109.704L79.5087 110.427C84.248 114.953 91.07 116.913 99.25 116.913V115.913ZM101.208 115.164C100.695 115.639 99.9911 115.913 99.25 115.913V116.913C100.233 116.913 101.182 116.551 101.888 115.897L101.208 115.164ZM102 113.4C102 114.054 101.72 114.689 101.208 115.164L101.888 115.897C102.595 115.242 103 114.344 103 113.4H102ZM101.208 111.637C101.72 112.111 102 112.747 102 113.4H103C103 112.456 102.595 111.559 101.888 110.903L101.208 111.637ZM99.25 110.888C99.9911 110.888 100.695 111.161 101.208 111.637L101.888 110.903C101.182 110.249 100.233 109.888 99.25 109.888V110.888ZM84.1756 106.23C87.2733 109.19 92.119 110.888 99.25 110.888V109.888C92.263 109.888 87.7097 108.224 84.8664 105.507L84.1756 106.23ZM79.25 91.671C79.25 98.5566 81.0541 103.252 84.1758 106.231L84.8662 105.507C82.0079 102.78 80.25 98.3898 80.25 91.671H79.25ZM79.25 62.1876V91.671H80.25V62.1876H79.25ZM78.4582 60.4241C78.9702 60.8988 79.25 61.534 79.25 62.1876H80.25C80.25 61.2433 79.8449 60.346 79.138 59.6907L78.4582 60.4241Z" fill="#7D2D61"/>
</g>
<defs>
<filter id="filter0_d_365_110" x="0.5" y="0.5" width="154" height="154" filterUnits="userSpaceOnUse" color-interpolation-filters="sRGB">
<feFlood flood-opacity="0" result="BackgroundImageFix"/>
<feColorMatrix in="SourceAlpha" type="matrix" values="0 0 0 0 0 0 0 0 0 0 0 0 0 0 0 0 0 0 127 0" result="hardAlpha"/>
<feOffset dx="4" dy="2"/>
<feGaussianBlur stdDeviation="2"/>
<feComposite in2="hardAlpha" operator="out"/>
<feColorMatrix type="matrix" values="0 0 0 0 0 0 0 0 0 0 0 0 0 0 0 0 0 0 0.25 0"/>
<feBlend mode="normal" in2="BackgroundImageFix" result="effect1_dropShadow_365_110"/>
<feBlend mode="normal" in="SourceGraphic" in2="effect1_dropShadow_365_110" result="shape"/>
</filter>
<filter id="filter1_dd_365_110" x="22.5" y="7.5" width="118" height="147.5" filterUnits="userSpaceOnUse" color-interpolation-filters="sRGB">
<feFlood flood-opacity="0" result="BackgroundImageFix"/>
<feColorMatrix in="SourceAlpha" type="matrix" values="0 0 0 0 0 0 0 0 0 0 0 0 0 0 0 0 0 0 127 0" result="hardAlpha"/>
<feOffset dx="5" dy="4"/>
<feGaussianBlur stdDeviation="6.5"/>
<feComposite in2="hardAlpha" operator="out"/>
<feColorMatrix type="matrix" values="0 0 0 0 0.683333 0 0 0 0 0.0911111 0 0 0 0 0.461894 0 0 0 1 0"/>
<feBlend mode="normal" in2="BackgroundImageFix" result="effect1_dropShadow_365_110"/>
<feColorMatrix in="SourceAlpha" type="matrix" values="0 0 0 0 0 0 0 0 0 0 0 0 0 0 0 0 0 0 127 0" result="hardAlpha"/>
<feOffset dx="-2" dy="4"/>
<feGaussianBlur stdDeviation="2"/>
<feComposite in2="hardAlpha" operator="out"/>
<feColorMatrix type="matrix" values="0 0 0 0 0.486275 0 0 0 0 0.176471 0 0 0 0 0.372549 0 0 0 1 0"/>
<feBlend mode="normal" in2="effect1_dropShadow_365_110" result="effect2_dropShadow_365_110"/>
<feBlend mode="normal" in="SourceGraphic" in2="effect2_dropShadow_365_110" result="shape"/>
</filter>
</defs>
</svg>
