<svg width="607" height="137" viewBox="0 0 607 137" fill="none" xmlns="http://www.w3.org/2000/svg">
<path fill-rule="evenodd" clip-rule="evenodd" d="M41 5.85718C35.1428 5.85718 29.6313 7.28632 24.7816 9.81367C24.0955 10.1489 23.3057 10.2029 22.5804 9.96415C21.8552 9.72545 21.2518 9.21293 20.8989 8.53582C20.546 7.85871 20.4716 7.07056 20.6914 6.33934C20.9112 5.60812 21.4078 4.99165 22.0756 4.62132C27.9185 1.57679 34.4114 -0.00874901 41 3.62396e-05C50.0375 3.62396e-05 58.4015 2.92861 65.1812 7.88667C65.4949 8.11248 65.7608 8.39814 65.9635 8.72719C66.1663 9.05624 66.3019 9.42217 66.3626 9.80389C66.4232 10.1856 66.4077 10.5756 66.317 10.9513C66.2262 11.327 66.062 11.681 65.8337 11.9929C65.6055 12.3048 65.3177 12.5685 64.9871 12.7686C64.6565 12.9688 64.2895 13.1016 63.9073 13.1593C63.5252 13.217 63.1354 13.1984 62.7604 13.1047C62.3854 13.011 62.0327 12.8441 61.7225 12.6134C55.7112 8.2112 48.4509 5.84411 41 5.85718ZM69.208 15.2637C69.511 15.0268 69.8577 14.8518 70.2284 14.7489C70.599 14.6459 70.9863 14.617 71.3682 14.6638C71.75 14.7106 72.1189 14.8321 72.4537 15.0215C72.7886 15.2109 73.0828 15.4643 73.3197 15.7675C76.5616 19.9119 78.9729 24.6431 80.4215 29.7016C80.6096 30.4399 80.5026 31.2224 80.1231 31.8831C79.7437 32.5438 79.1217 33.0306 78.3893 33.2402C77.6568 33.4498 76.8714 33.3657 76.2 33.0058C75.5285 32.6458 75.0237 32.0384 74.7928 31.3123C73.5495 26.9784 71.4812 22.9253 68.7013 19.3755C68.4645 19.0723 68.2897 18.7254 68.187 18.3546C68.0843 17.9838 68.0557 17.5965 68.1027 17.2146C68.1498 16.8328 68.2716 16.464 68.4613 16.1292C68.6509 15.7945 68.9046 15.5004 69.208 15.2637ZM11.5913 16.646C11.9053 16.8681 12.1725 17.1499 12.3777 17.4752C12.5828 17.8006 12.7219 18.1632 12.7868 18.5423C12.8518 18.9214 12.8415 19.3095 12.7565 19.6847C12.6714 20.0598 12.5133 20.4145 12.2912 20.7285C8.09373 26.6537 5.84499 33.7387 5.85714 41V76.1429C5.85714 76.9196 5.5486 77.6645 4.99938 78.2137C4.45017 78.7629 3.70527 79.0714 2.92857 79.0714C2.15187 79.0714 1.40697 78.7629 0.857759 78.2137C0.308546 77.6645 0 76.9196 0 76.1429V41C0 32.1938 2.78214 24.029 7.50885 17.343C7.9578 16.7093 8.64012 16.2798 9.40572 16.1491C10.1713 16.0184 10.9575 16.1971 11.5913 16.646ZM79.0714 38.0714C79.8481 38.0714 80.593 38.38 81.1422 38.9292C81.6914 39.4784 82 40.2233 82 41V76.1429C82.0131 85.7157 78.6642 94.9891 72.5378 102.345C72.0407 102.942 71.3267 103.317 70.5528 103.388C69.779 103.459 69.0087 103.22 68.4114 102.723C67.8141 102.225 67.4388 101.511 67.3679 100.738C67.2971 99.9638 67.5365 99.1935 68.0336 98.5962C73.2848 92.2935 76.155 84.3464 76.1428 76.1429V41.0029C76.1428 40.2262 76.4514 39.4813 77.0006 38.9321C77.5498 38.3829 78.2947 38.0744 79.0714 38.0744V38.0714ZM8.49871 96.1948C8.80957 95.9678 9.1621 95.8044 9.53617 95.7138C9.91023 95.6232 10.2985 95.6072 10.6787 95.6668C11.059 95.7264 11.4237 95.8603 11.7522 96.061C12.0806 96.2616 12.3663 96.525 12.5929 96.8361C16.8316 102.65 22.749 107.028 29.5493 109.379C33.2338 110.646 37.1037 111.29 41 111.286C41.7767 111.286 42.5216 111.594 43.0708 112.143C43.62 112.693 43.9286 113.438 43.9286 114.214C43.9286 114.991 43.62 115.736 43.0708 116.285C42.5216 116.834 41.7767 117.143 41 117.143C36.454 117.147 31.9389 116.395 27.6398 114.917C19.7076 112.175 12.805 107.07 7.86028 100.289C7.6332 99.9782 7.46957 99.6258 7.37875 99.2519C7.28793 98.8779 7.2717 98.4898 7.33099 98.1095C7.39029 97.7293 7.52393 97.3645 7.7243 97.0359C7.92466 96.7074 8.18781 96.4216 8.49871 96.1948ZM63.7755 106.796C64.1896 107.453 64.3261 108.247 64.1547 109.005C63.9834 109.762 63.5183 110.42 62.8618 110.835C59.0446 113.247 54.8535 115.008 50.4593 116.048C50.0849 116.136 49.6967 116.15 49.317 116.088C48.9372 116.027 48.5733 115.891 48.246 115.689C47.9188 115.487 47.6345 115.222 47.4095 114.91C47.1845 114.598 47.0232 114.245 46.9347 113.87C46.8463 113.496 46.8324 113.108 46.894 112.728C46.9555 112.348 47.0913 111.984 47.2935 111.657C47.4957 111.33 47.7603 111.045 48.0724 110.82C48.3844 110.595 48.7377 110.434 49.1121 110.346C52.8766 109.455 56.4671 107.946 59.737 105.88C60.3937 105.465 61.1881 105.329 61.9454 105.5C62.7027 105.672 63.361 106.137 63.7755 106.793V106.796ZM11.7143 41.6882C11.7143 25.669 26.3981 14.6429 41 14.6429C55.6018 14.6429 70.2857 25.669 70.2857 41.6882V71.8789C70.2857 74.4501 69.7878 77.1884 68.3821 79.3819C66.8768 81.7306 64.4256 83.2681 61.1778 83.2681C58.0062 83.2681 55.4261 81.8038 53.7158 79.5927C52.0495 77.4431 51.25 74.6639 51.25 71.8789V44.6227C51.2579 41.8172 50.1716 39.1193 48.2218 37.1021C47.2846 36.1331 46.1626 35.362 44.9222 34.8344C43.6817 34.3067 42.348 34.0332 41 34.03C38.3057 34.03 35.7081 35.1253 33.7781 37.105C31.8284 39.1222 30.742 41.8202 30.75 44.6256V78.6439C30.75 86.4631 34.6626 93.6967 43.4248 96.8156C44.1501 97.0811 44.7411 97.6222 45.0693 98.3213C45.3975 99.0204 45.4362 99.8208 45.1771 100.548C44.918 101.276 44.382 101.872 43.6858 102.206C42.9896 102.54 42.1895 102.586 41.4598 102.333C30.0383 98.2682 24.8928 88.5805 24.8928 78.6409V44.6256C24.8851 40.2926 26.5683 36.1276 29.5844 33.0167C31.067 31.4875 32.841 30.2709 34.8018 29.439C36.7625 28.607 38.8701 28.1765 41 28.1729C45.2962 28.1729 49.402 29.9242 52.4156 33.0167C55.4317 36.1276 57.1149 40.2926 57.1071 44.6256V71.8818C57.1071 73.6038 57.6108 75.0564 58.3459 76.0111C59.037 76.9043 59.9566 77.4139 61.1808 77.4139C62.3288 77.4139 62.9672 76.9746 63.4504 76.2219C64.0361 75.3141 64.4285 73.8205 64.4285 71.8818V41.6882C64.4285 29.6489 53.1623 20.5 41 20.5C28.8376 20.5 17.5714 29.646 17.5714 41.6882V78.4389C17.5714 81.5519 18.0371 84.6562 18.9332 87.2539C19.8469 89.8925 21.1091 91.7492 22.5148 92.7449C22.8285 92.9676 23.0952 93.2499 23.2997 93.5756C23.5043 93.9014 23.6426 94.2642 23.707 94.6434C23.7713 95.0226 23.7603 95.4108 23.6746 95.7858C23.5888 96.1608 23.4301 96.5152 23.2075 96.8288C22.9848 97.1424 22.7025 97.4091 22.3768 97.6137C22.051 97.8182 21.6882 97.9566 21.3089 98.0209C20.9297 98.0852 20.5415 98.0742 20.1666 97.9885C19.7916 97.9028 19.4372 97.7441 19.1236 97.5214C16.3531 95.5593 14.5286 92.4491 13.3953 89.1691C12.2502 85.8511 11.7113 82.0849 11.7113 78.4359V41.6912L11.7143 41.6882ZM41 41.0001C41.7767 41.0001 42.5216 41.3086 43.0708 41.8578C43.62 42.407 43.9286 43.1519 43.9286 43.9286V72.5906C43.9286 79.2033 45.5334 83.6195 48.2277 86.3929C50.9044 89.1516 55.1391 90.7858 61.5 90.7858C62.2767 90.7858 63.0216 91.0943 63.5708 91.6435C64.12 92.1927 64.4286 92.9376 64.4286 93.7143C64.4286 94.491 64.12 95.2359 63.5708 95.7851C63.0216 96.3344 62.2767 96.6429 61.5 96.6429C54.1932 96.6429 48.1779 94.754 44.0223 90.4724C39.8871 86.2084 38.0714 80.0613 38.0714 72.5906V43.9286C38.0714 43.1519 38.38 42.407 38.9292 41.8578C39.4784 41.3086 40.2233 41.0001 41 41.0001ZM111.672 22.024C112.44 21.0853 113.507 20.616 114.872 20.616H134.84V101H142.52V20.616H172.472V13.448H114.488C111.501 13.448 108.856 14.6 106.552 16.904C104.333 19.1227 103.224 21.8107 103.224 24.968H110.52C110.52 23.8587 110.904 22.8773 111.672 22.024ZM183.426 97.8C187.607 100.787 192.642 102.28 198.53 102.28C202.711 102.28 206.466 101.384 209.794 99.592C213.122 97.8 215.81 95.1973 217.858 91.784C217.858 94.6853 218.967 97.16 221.186 99.208C223.49 101.256 226.135 102.28 229.122 102.28C231.17 102.28 232.962 101.896 234.498 101.128C236.119 100.445 237.57 99.208 238.85 97.416L233.346 93.064C232.407 94.5147 231.17 95.24 229.634 95.24C228.439 95.24 227.415 94.8133 226.562 93.96C225.794 93.0213 225.41 91.6987 225.41 89.992V37.128H217.73C215.426 36.7867 212.781 36.5307 209.794 36.36C206.807 36.104 204.333 35.976 202.37 35.976C195.97 35.976 190.381 37.384 185.602 40.2C180.823 43.016 177.154 46.984 174.594 52.104C172.034 57.1387 170.754 62.9413 170.754 69.512C170.754 75.4853 171.821 80.9467 173.954 85.896C176.087 90.8453 179.245 94.8133 183.426 97.8ZM209.026 92.552C205.954 94.4293 202.498 95.368 198.658 95.368C192.087 95.368 187.053 92.8507 183.554 87.816C180.141 82.696 178.434 76.5093 178.434 69.256C178.434 61.4053 180.397 55.048 184.322 50.184C188.247 45.32 194.093 42.888 201.858 42.888L209.282 43.144L217.73 43.4V76.936C217.73 79.9227 217.133 82.6533 215.938 85.128C214.402 88.2 212.098 90.6747 209.026 92.552ZM291.474 40.456C287.378 37.4693 282.386 35.976 276.498 35.976C267.282 35.976 260.839 39.3467 257.17 46.088C256.573 43.9547 255.591 41.992 254.226 40.2C252.861 38.408 251.453 37 250.002 35.976L244.882 41.096C248.466 44.2533 250.258 49.2027 250.258 55.944V134.28H257.554V100.616C265.575 101.725 270.653 102.28 272.786 102.28C279.271 102.28 284.861 100.872 289.554 98.056C294.247 95.1547 297.831 91.1867 300.306 86.152C302.781 81.1173 304.018 75.3147 304.018 68.744C304.018 62.6853 302.951 57.1813 300.818 52.232C298.77 47.2827 295.655 43.3573 291.474 40.456ZM290.194 88.456C286.183 93.064 280.167 95.368 272.146 95.368C270.269 95.368 265.405 94.984 257.554 94.216V59.016C257.895 54.2373 259.943 50.3547 263.698 47.368C267.538 44.3813 271.89 42.888 276.754 42.888C282.898 42.888 287.677 45.4053 291.09 50.44C294.589 55.4747 296.338 61.7893 296.338 69.384C296.338 77.4053 294.29 83.7627 290.194 88.456ZM339.449 134.152C342.436 135.859 345.721 136.712 349.305 136.712C355.193 136.712 359.929 134.792 363.513 130.952C367.182 127.112 369.017 122.077 369.017 115.848V36.872H361.721L354.041 35.976C352.676 35.72 350.329 35.592 347.001 35.592C340.686 35.592 335.097 36.9573 330.233 39.688C325.454 42.4187 321.742 46.2587 319.097 51.208C316.452 56.1573 315.129 61.9173 315.129 68.488C315.129 76.8507 317.134 84.104 321.145 90.248C325.241 96.3067 330.574 100.104 337.145 101.64C332.281 105.651 329.849 110.899 329.849 117.384C329.849 120.968 330.702 124.211 332.409 127.112C334.116 130.099 336.462 132.445 339.449 134.152ZM353.273 90.504C349.518 93.4907 345.678 94.984 341.753 94.984C338.34 94.984 335.182 93.832 332.281 91.528C329.38 89.224 327.076 86.1093 325.369 82.184C323.662 78.1733 322.809 73.8213 322.809 69.128C322.809 64.1787 323.79 59.7413 325.753 55.816C327.716 51.8053 330.404 48.6907 333.817 46.472C337.316 44.168 341.198 43.016 345.465 43.016H349.689L361.337 43.656V77.96C361.337 79.8373 360.569 81.928 359.033 84.232C357.582 86.536 355.662 88.6267 353.273 90.504ZM358.009 125.704C356.046 128.093 353.358 129.288 349.945 129.288C346.532 129.288 343.63 128.136 341.241 125.832C338.937 123.528 337.785 120.669 337.785 117.256C337.785 111.709 340.004 107.528 344.441 104.712C344.782 104.456 346.105 103.645 348.409 102.28C351.737 100.403 354.169 98.7813 355.705 97.416C357.156 96.2213 358.393 94.856 359.417 93.32C360.526 91.6987 361.166 90.8027 361.337 90.632V115.464C361.166 119.901 360.057 123.315 358.009 125.704ZM423.154 36.872C420.594 36.104 418.034 35.72 415.474 35.72C411.037 35.72 407.325 36.7013 404.338 38.664C401.949 40.1147 399.559 42.8027 397.17 46.728C396.573 44.424 395.591 42.3333 394.226 40.456C392.861 38.5787 391.41 37.1707 389.874 36.232L384.754 41.352C388.338 44.5093 390.13 49.4587 390.13 56.2V101H397.81V55.432C399.943 51.5067 402.375 48.4773 405.106 46.344C407.837 44.2107 411.378 43.144 415.73 43.144C418.205 43.144 420.679 43.4427 423.154 44.04V36.872ZM441.926 97.8C446.107 100.787 451.142 102.28 457.03 102.28C461.211 102.28 464.966 101.384 468.294 99.592C471.622 97.8 474.31 95.1973 476.358 91.784C476.358 94.6853 477.467 97.16 479.686 99.208C481.99 101.256 484.635 102.28 487.622 102.28C489.67 102.28 491.462 101.896 492.998 101.128C494.619 100.445 496.07 99.208 497.35 97.416L491.846 93.064C490.907 94.5147 489.67 95.24 488.134 95.24C486.939 95.24 485.915 94.8133 485.062 93.96C484.294 93.0213 483.91 91.6987 483.91 89.992V37.128H476.23C473.926 36.7867 471.281 36.5307 468.294 36.36C465.307 36.104 462.833 35.976 460.87 35.976C454.47 35.976 448.881 37.384 444.102 40.2C439.323 43.016 435.654 46.984 433.094 52.104C430.534 57.1387 429.254 62.9413 429.254 69.512C429.254 75.4853 430.321 80.9467 432.454 85.896C434.587 90.8453 437.745 94.8133 441.926 97.8ZM467.526 92.552C464.454 94.4293 460.998 95.368 457.158 95.368C450.587 95.368 445.553 92.8507 442.054 87.816C438.641 82.696 436.934 76.5093 436.934 69.256C436.934 61.4053 438.897 55.048 442.822 50.184C446.747 45.32 452.593 42.888 460.358 42.888L467.782 43.144L476.23 43.4V76.936C476.23 79.9227 475.633 82.6533 474.438 85.128C472.902 88.2 470.598 90.6747 467.526 92.552ZM602.582 100.232C604.289 99.208 605.483 97.9707 606.166 96.52L600.534 92.296C599.766 93.7467 598.529 94.472 596.822 94.472C595.713 94.472 594.731 94.088 593.878 93.32C593.11 92.4667 592.726 91.4427 592.726 90.248V56.072C592.726 50.0133 590.891 45.1493 587.222 41.48C583.638 37.7253 578.817 35.848 572.758 35.848C568.577 35.848 564.779 36.872 561.366 38.92C558.038 40.8827 555.179 43.7413 552.79 47.496C551.254 43.656 548.95 40.7547 545.878 38.792C542.891 36.8293 539.307 35.848 535.126 35.848C531.03 35.848 527.318 36.7867 523.99 38.664C520.747 40.456 517.974 43.0587 515.67 46.472C514.987 44.2533 513.963 42.248 512.598 40.456C511.233 38.664 509.825 37.256 508.374 36.232L503.254 41.352C506.838 44.5093 508.63 49.4587 508.63 56.2V101H516.31V55.176C517.761 51.6773 520.15 48.7333 523.478 46.344C526.891 43.9547 530.561 42.76 534.486 42.76C538.582 42.76 541.654 44.1253 543.702 46.856C545.75 49.5013 546.774 53.2133 546.774 57.992V101H554.454V55.432C558.891 46.984 564.95 42.76 572.63 42.76C576.555 42.76 579.542 43.8693 581.59 46.088C583.638 48.2213 584.79 51.592 585.046 56.2V90.12C585.046 93.5333 586.155 96.3067 588.374 98.44C590.593 100.573 593.409 101.64 596.822 101.64C598.955 101.64 600.875 101.171 602.582 100.232Z" fill="url(#paint0_linear_124_2)"/>
<defs>
<linearGradient id="paint0_linear_124_2" x1="353.5" y1="-23" x2="353.5" y2="138" gradientUnits="userSpaceOnUse">
<stop stop-color="#6DCDAB"/>
<stop offset="1" stop-color="#465650"/>
</linearGradient>
</defs>
</svg>
