<svg width="36" height="40" viewBox="0 0 36 40" fill="none" xmlns="http://www.w3.org/2000/svg">
<path d="M6 16C5.99891 13.5067 6.77446 11.075 8.21891 9.04277C9.66335 7.01051 11.7049 5.47864 14.06 4.66002C13.9688 4.08864 14.0026 3.50427 14.1592 2.94724C14.3158 2.39021 14.5913 1.87378 14.9668 1.43357C15.3423 0.993367 15.8089 0.63987 16.3343 0.397471C16.8597 0.155071 17.4314 0.029541 18.01 0.029541C18.5886 0.029541 19.1603 0.155071 19.6857 0.397471C20.2111 0.63987 20.6777 0.993367 21.0532 1.43357C21.4287 1.87378 21.7042 2.39021 21.8608 2.94724C22.0174 3.50427 22.0512 4.08864 21.96 4.66002C24.3113 5.482 26.3486 7.0153 27.7892 9.04727C29.2299 11.0792 30.0025 13.5092 30 16V28L36 32V34H0V32L6 28V16ZM22 36C22 37.0609 21.5786 38.0783 20.8284 38.8284C20.0783 39.5786 19.0609 40 18 40C16.9391 40 15.9217 39.5786 15.1716 38.8284C14.4214 38.0783 14 37.0609 14 36H22Z" fill="white"/>
</svg>
