<svg width="46" height="46" viewBox="0 0 46 46" fill="none" xmlns="http://www.w3.org/2000/svg">
<path d="M23 43.125C17.6625 43.125 12.5436 41.0047 8.76948 37.2305C4.99531 33.4564 2.875 28.3375 2.875 23C2.875 17.6625 4.99531 12.5436 8.76948 8.76948C12.5436 4.99531 17.6625 2.875 23 2.875C28.3375 2.875 33.4564 4.99531 37.2305 8.76948C41.0047 12.5436 43.125 17.6625 43.125 23C43.125 28.3375 41.0047 33.4564 37.2305 37.2305C33.4564 41.0047 28.3375 43.125 23 43.125ZM23 46C29.1 46 34.9501 43.5768 39.2635 39.2635C43.5768 34.9501 46 29.1 46 23C46 16.9 43.5768 11.0499 39.2635 6.73654C34.9501 2.42321 29.1 0 23 0C16.9 0 11.0499 2.42321 6.73654 6.73654C2.42321 11.0499 0 16.9 0 23C0 29.1 2.42321 34.9501 6.73654 39.2635C11.0499 43.5768 16.9 46 23 46Z" fill="white"/>
<path d="M15.1082 16.6347C15.1042 16.7276 15.1193 16.8203 15.1525 16.9071C15.1857 16.9939 15.2363 17.0729 15.3012 17.1395C15.3661 17.206 15.4439 17.2585 15.5299 17.2938C15.6158 17.3292 15.7081 17.3465 15.801 17.3449H18.1729C18.5697 17.3449 18.8859 17.02 18.9377 16.6261C19.1964 14.7401 20.4902 13.3659 22.7959 13.3659C24.7682 13.3659 26.5737 14.352 26.5737 16.7239C26.5737 18.5495 25.4984 19.389 23.7993 20.6655C21.8644 22.0714 20.332 23.713 20.4413 26.3781L20.4499 27.002C20.4529 27.1906 20.53 27.3705 20.6644 27.5028C20.7989 27.6351 20.98 27.7093 21.1687 27.7092H23.5003C23.6909 27.7092 23.8737 27.6335 24.0085 27.4987C24.1433 27.3639 24.219 27.1811 24.219 26.9905V26.6886C24.219 24.6244 25.0039 24.0235 27.1228 22.4164C28.8737 21.0852 30.6993 19.6075 30.6993 16.5054C30.6993 12.1613 27.0308 10.0625 23.0144 10.0625C19.3718 10.0625 15.3813 11.7587 15.1082 16.6347ZM19.5845 33.2034C19.5845 34.7357 20.8064 35.8685 22.4883 35.8685C24.2392 35.8685 25.4438 34.7357 25.4438 33.2034C25.4438 31.6164 24.2363 30.5009 22.4854 30.5009C20.8064 30.5009 19.5845 31.6164 19.5845 33.2034Z" fill="white"/>
</svg>
