<svg width="119" height="138" viewBox="0 0 119 138" fill="none" xmlns="http://www.w3.org/2000/svg">
<path d="M64.25 84.8565V98.1802C58.4801 96.1403 52.305 95.5146 46.2432 96.3556C40.1814 97.1967 34.4099 99.48 29.4134 103.014C24.4169 106.548 20.3412 111.229 17.5287 116.664C14.7161 122.099 13.2488 128.13 13.25 134.25L0.500002 134.244C0.498023 126.459 2.27812 118.777 5.7039 111.787C9.12969 104.797 14.1102 98.6834 20.2639 93.9156C26.4175 89.1477 33.581 85.8519 41.2054 84.2805C48.8297 82.7091 56.7126 82.9103 64.25 84.8565ZM51.5 76.875C30.3669 76.875 13.25 59.7581 13.25 38.625C13.25 17.4919 30.3669 0.375 51.5 0.375C72.6331 0.375 89.75 17.4919 89.75 38.625C89.75 59.7581 72.6331 76.875 51.5 76.875ZM51.5 64.125C65.5888 64.125 77 52.7138 77 38.625C77 24.5362 65.5888 13.125 51.5 13.125C37.4112 13.125 26 24.5362 26 38.625C26 52.7138 37.4112 64.125 51.5 64.125ZM96.125 106.111L109.646 92.583L118.667 101.604L105.139 115.125L118.667 128.646L109.646 137.667L96.125 124.139L82.6036 137.667L73.583 128.646L87.1108 115.125L73.583 101.604L82.6036 92.583L96.125 106.111Z" fill="white"/>
</svg>
