<svg width="45" height="44" viewBox="0 0 45 44" fill="none" xmlns="http://www.w3.org/2000/svg">
<path d="M40.2246 12.3789C39.6431 11.0935 38.8047 9.92877 37.7563 8.94978C36.7071 7.96787 35.4701 7.18756 34.1125 6.65129C32.7048 6.09299 31.1949 5.80723 29.6706 5.81058C27.532 5.81058 25.4455 6.36967 23.6323 7.42573C23.1985 7.67836 22.7864 7.95584 22.396 8.25816C22.0056 7.95584 21.5935 7.67836 21.1597 7.42573C19.3465 6.36967 17.26 5.81058 15.1215 5.81058C13.5815 5.81058 12.0893 6.09219 10.6795 6.65129C9.31744 7.18967 8.08983 7.96412 7.03573 8.94978C5.98596 9.92767 5.14738 11.0927 4.5675 12.3789C3.96454 13.7166 3.65656 15.1371 3.65656 16.599C3.65656 17.9781 3.95153 19.4152 4.53714 20.8771C5.02731 22.0988 5.73004 23.3661 6.62798 24.6458C8.05079 26.671 10.0072 28.7831 12.4363 30.9242C16.4619 34.4734 20.4483 36.9252 20.6175 37.0246L21.6456 37.6541C22.1011 37.9315 22.6867 37.9315 23.1421 37.6541L24.1702 37.0246C24.3394 36.921 28.3215 34.4734 32.3514 30.9242C34.7806 28.7831 36.7369 26.671 38.1597 24.6458C39.0577 23.3661 39.7647 22.0988 40.2506 20.8771C40.8362 19.4152 41.1312 17.9781 41.1312 16.599C41.1355 15.1371 40.8275 13.7166 40.2246 12.3789ZM22.396 34.3782C22.396 34.3782 6.95331 24.9316 6.95331 16.599C6.95331 12.3789 10.6101 8.95807 15.1215 8.95807C18.2924 8.95807 21.0426 10.6478 22.396 13.1161C23.7494 10.6478 26.4996 8.95807 29.6706 8.95807C34.1819 8.95807 37.8387 12.3789 37.8387 16.599C37.8387 24.9316 22.396 34.3782 22.396 34.3782Z" fill="white"/>
</svg>
